HIERARCHY
ROOT Hips
{
	OFFSET 70.963699 534.312134 -188.735901
	CHANNELS 6 Xposition Yposition Zposition Zrotation Xrotation Yrotation
	JOINT Chest
	{
		OFFSET -2.419189 77.438416 -4.009186
		CHANNELS 6 Xposition Yposition Zposition Zrotation Xrotation Yrotation
		JOINT Chest2
		{
			OFFSET 0.000000 42.816010 0.000000
			CHANNELS 6 Xposition Yposition Zposition Zrotation Xrotation Yrotation
			JOINT Neck
			{
				OFFSET 0.000000 99.556824 0.000046
				CHANNELS 6 Xposition Yposition Zposition Zrotation Xrotation Yrotation
				JOINT Head
				{
					OFFSET 0.000000 26.086761 0.000000
					CHANNELS 6 Xposition Yposition Zposition Zrotation Xrotation Yrotation
					End Site
					{
						OFFSET 0.000000 94.703979 -0.000023
					}
				}
			}
			JOINT LeftCollar
			{
				OFFSET 23.131210 72.587997 -2.656769
				CHANNELS 6 Xposition Yposition Zposition Zrotation Xrotation Yrotation
				JOINT LeftShoulder
				{
					OFFSET 59.516396 0.000000 0.000000
					CHANNELS 6 Xposition Yposition Zposition Zrotation Xrotation Yrotation
					JOINT LeftElbow
					{
						OFFSET 0.000000 -103.850418 -0.000046
						CHANNELS 6 Xposition Yposition Zposition Zrotation Xrotation Yrotation
						JOINT LeftWrist
						{
							OFFSET 0.000000 -166.369217 0.000000
							CHANNELS 6 Xposition Yposition Zposition Zrotation Xrotation Yrotation
							End Site
							{
								OFFSET 0.000000 -26.086807 0.000000
							}
						}
					}
				}
			}
			JOINT RightCollar
			{
				OFFSET -37.868408 80.253616 9.180027
				CHANNELS 6 Xposition Yposition Zposition Zrotation Xrotation Yrotation
				JOINT RightShoulder
				{
					OFFSET -43.114792 0.000000 0.000000
					CHANNELS 6 Xposition Yposition Zposition Zrotation Xrotation Yrotation
					JOINT RightElbow
					{
						OFFSET 0.000000 -124.228775 -0.000034
						CHANNELS 6 Xposition Yposition Zposition Zrotation Xrotation Yrotation
						JOINT RightWrist
						{
							OFFSET 0.000000 -153.003616 0.000000
							CHANNELS 6 Xposition Yposition Zposition Zrotation Xrotation Yrotation
							End Site
							{
								OFFSET 0.000000 -26.086807 0.000000
							}
						}
					}
				}
			}
		}
	}
	JOINT LeftHip
	{
		OFFSET 29.527199 -32.826004 6.217209
		CHANNELS 6 Xposition Yposition Zposition Zrotation Xrotation Yrotation
		JOINT LeftKnee
		{
			OFFSET 0.000000 -204.070831 -0.000034
			CHANNELS 6 Xposition Yposition Zposition Zrotation Xrotation Yrotation
			JOINT LeftAnkle
			{
				OFFSET 0.000000 -230.332809 -0.000034
				CHANNELS 6 Xposition Yposition Zposition Zrotation Xrotation Yrotation
				End Site
				{
					OFFSET 0.000000 -0.000011 97.615196
				}
			}
		}
	}
	JOINT RightHip
	{
		OFFSET -37.385994 -27.843613 8.155197
		CHANNELS 6 Xposition Yposition Zposition Zrotation Xrotation Yrotation
		JOINT RightKnee
		{
			OFFSET 0.000000 -212.164856 -0.000034
			CHANNELS 6 Xposition Yposition Zposition Zrotation Xrotation Yrotation
			JOINT RightAnkle
			{
				OFFSET 0.000000 -203.925568 -0.000034
				CHANNELS 6 Xposition Yposition Zposition Zrotation Xrotation Yrotation
				End Site
				{
					OFFSET 0.000000 -0.000017 106.107628
				}
			}
		}
	}
}
MOTION
Frames: 9
Frame Time: 0.041667
-75.816818 500.264465 -6.392052 10.456840 -4.008512 -28.783131 -2.419230 77.438377 -4.009200 -8.383292 -4.591198 29.112961 0.000006 42.815975 0.000006 3.095399 0.027995 -18.905689 -0.000003 99.556885 0.000057 -1.706861 13.078305 59.996436 0.000011 26.086803 0.000015 -8.896535 -2.302050 5.956070 23.131182 72.587929 -2.656782 -16.831253 -5.715395 -10.622273 59.516380 0.000054 -0.000047 103.820323 32.938724 4.234144 0.000054 -103.850433 -0.000020 11.860482 -9.814214 79.019053 -0.000040 -166.369217 0.000023 20.722903 -20.425809 64.406362 -37.868412 80.253693 9.180037 -102.396557 -22.262262 -5.580084 -43.114758 0.000026 0.000046 -61.306555 33.329322 -60.457618 -0.000004 -124.228790 -0.000016 49.121426 -129.595299 58.818625 0.000007 -153.003601 0.000013 -3.676856 -13.062199 89.470574 29.527149 -32.825935 6.217199 -6.756790 -8.924747 0.116348 -0.000006 -204.070724 -0.000040 -11.271329 32.079343 -47.726784 0.000014 -230.332809 -0.000043 -29.705787 -20.895208 41.562992 -37.386028 -27.843636 8.155172 -22.899609 -38.473547 -38.019353 -0.000008 -212.164902 -0.000010 145.517631 64.514388 -45.194713 -0.000005 -203.925598 -0.000051 40.088556 -44.034834 -69.462136 
-76.201477 500.249725 -6.468189 10.410944 -3.997395 -28.680760 -2.419184 77.438362 -4.009160 -8.281248 -4.501736 29.031808 0.000003 42.815956 -0.000011 3.113431 0.094749 -18.877863 -0.000014 99.556847 0.000051 -1.623725 13.255291 59.571161 0.000000 26.086838 0.000021 -8.902370 -2.476767 6.150941 23.131172 72.587921 -2.656770 -16.914813 -5.506750 -10.863584 59.516418 0.000057 -0.000026 103.846879 33.250389 4.321741 -0.000034 -103.850441 -0.000017 11.860233 -9.888203 78.303707 -0.000034 -166.369156 0.000006 21.224980 -20.030173 64.912690 -37.868423 80.253609 9.180023 -102.356115 -22.309563 -5.034242 -43.114750 -0.000018 0.000023 -61.313618 33.745315 -60.820499 0.000009 -124.228775 -0.000062 48.985126 -129.356174 59.102276 -0.000018 -153.003601 0.000010 -3.111622 -12.796849 88.909242 29.527199 -32.825932 6.217231 -6.914537 -8.789414 -0.056590 -0.000003 -204.070770 -0.000040 -10.850162 31.068133 -47.765483 0.000029 -230.332825 -0.000033 -29.303468 -18.040246 43.227369 -37.386002 -27.843643 8.155191 -22.855126 -38.455328 -38.017738 0.000011 -212.164856 0.000011 146.097924 64.571939 -46.075220 -0.000003 -203.925568 -0.000054 40.470404 -43.213640 -68.718424 
-76.758194 500.145172 -6.901257 10.384252 -3.956113 -28.437696 -2.419155 77.438408 -4.009180 -8.396042 -4.142976 28.800589 0.000017 42.815956 -0.000014 3.085894 -0.188863 -18.932265 -0.000016 99.556931 0.000051 -1.351315 13.510137 59.788949 -0.000007 26.086830 0.000032 -8.763150 -2.347611 5.979824 23.131184 72.587997 -2.656762 -17.072789 -5.826526 -10.471745 59.516388 -0.000011 -0.000073 104.231248 32.841015 3.597704 -0.000043 -103.850418 -0.000014 12.016472 -9.902071 78.675084 -0.000040 -166.369217 -0.000017 21.452629 -19.672646 64.546032 -37.868431 80.253632 9.180012 -102.235474 -21.930686 -5.688500 -43.114750 0.000024 0.000049 -61.334750 32.846318 -60.194751 -0.000014 -124.228844 -0.000031 49.368276 -129.704309 59.494294 -0.000031 -153.003632 0.000069 -3.021423 -12.716250 89.135861 29.527222 -32.825890 6.217216 -7.000124 -8.592129 -0.447055 0.000011 -204.070801 -0.000029 -10.378711 29.768020 -48.188521 0.000031 -230.332794 -0.000043 -29.850044 -16.108144 44.502217 -37.385960 -27.843597 8.155218 -22.991928 -38.576970 -38.537106 0.000022 -212.164917 0.000019 147.434660 64.745166 -47.734068 -0.000033 -203.925568 -0.000053 40.731775 -42.319241 -67.994806 
-77.333511 500.057434 -7.330204 10.338996 -3.891467 -28.249410 -2.419167 77.438431 -4.009200 -8.353729 -3.912751 28.633275 0.000014 42.816067 -0.000003 3.056746 -0.297251 -18.880953 -0.000029 99.556755 0.000063 -1.234555 13.905343 59.776019 0.000001 26.086834 0.000031 -8.588008 -2.376376 5.835618 23.131172 72.587875 -2.656770 -17.195148 -6.026866 -10.230471 59.516434 0.000077 -0.000030 104.420144 32.366364 3.057283 -0.000057 -103.850433 0.000006 12.287363 -9.886954 79.552197 -0.000017 -166.369247 0.000063 21.435941 -19.688609 64.525733 -37.868511 80.253632 9.180002 -102.088030 -21.861055 -5.973691 -43.114773 -0.000017 0.000027 -61.231874 32.527348 -59.228183 0.000054 -124.228745 0.000020 49.277851 -130.603722 59.502313 -0.000011 -153.003632 0.000080 -2.857006 -12.806921 89.630564 29.527199 -32.825993 6.217196 -6.859918 -8.513998 -0.588914 0.000011 -204.070816 -0.000034 -10.223959 29.246289 -48.767117 0.000051 -230.332809 -0.000033 -28.576492 -14.312163 45.833807 -37.385975 -27.843620 8.155186 -23.075748 -38.486883 -38.766231 0.000023 -212.164948 -0.000024 148.016866 64.638875 -47.469214 -0.000018 -203.925568 -0.000040 40.394750 -43.522867 -68.852753 
-77.784775 500.095032 -7.487720 10.231148 -3.763715 -28.212125 -2.419161 77.438393 -4.009166 -8.035056 -4.101082 28.598333 0.000011 42.815994 -0.000011 3.058659 -0.053594 -18.716272 0.000006 99.556801 0.000057 -1.218775 14.451956 59.007828 0.000001 26.086620 0.000023 -8.533511 -2.693143 6.053373 23.131205 72.587837 -2.656770 -17.397802 -5.699894 -10.535693 59.516487 -0.000003 0.000006 104.497407 32.297427 3.219312 -0.000029 -103.850433 -0.000017 12.700382 -10.054067 80.463768 -0.000046 -166.369247 0.000023 21.548914 -19.570654 63.678332 -37.868401 80.253609 9.180038 -102.205257 -22.310868 -4.920054 -43.114708 -0.000054 0.000055 -60.854445 33.841060 -58.963937 0.000037 -124.228821 -0.000006 48.618601 -131.102216 58.726014 -0.000011 -153.003662 0.000044 -2.536474 -12.874794 89.870885 29.527222 -32.825943 6.217239 -6.677557 -8.529419 -0.521505 0.000020 -204.070801 -0.000034 -10.007391 28.930154 -49.271670 0.000023 -230.332794 -0.000040 -27.480737 -12.865156 46.579544 -37.385956 -27.843555 8.155191 -22.885234 -38.256678 -38.251703 -0.000025 -212.164948 0.000018 147.648022 64.295890 -46.207490 -0.000003 -203.925598 -0.000080 40.185555 -45.170432 -69.946683 
-78.234543 500.229858 -7.663170 10.284381 -3.515375 -28.338095 -2.419189 77.438393 -4.009209 -7.928765 -4.449291 28.687549 0.000003 42.815910 -0.000004 3.063104 0.039993 -18.701369 0.000004 99.556778 0.000051 -0.852402 14.921781 58.134076 -0.000014 26.086744 0.000024 -8.472564 -2.807010 6.119568 23.131199 72.587830 -2.656759 -17.454714 -5.780337 -10.438104 59.516373 0.000106 0.000031 104.706718 32.050308 3.336984 -0.000060 -103.850464 -0.000031 13.128028 -10.369956 81.666748 -0.000040 -166.369202 -0.000023 21.132283 -19.679124 61.905747 -37.868416 80.253494 9.180076 -102.172656 -22.512447 -4.697973 -43.114769 0.000018 0.000031 -60.844206 34.144420 -58.983772 0.000014 -124.228790 -0.000031 48.466715 -130.770433 58.476658 -0.000056 -153.003601 -0.000059 -3.071996 -13.544251 89.612731 29.527182 -32.826050 6.217201 -6.689867 -8.571577 -0.431786 0.000031 -204.070770 -0.000029 -9.676811 28.126190 -49.467717 0.000031 -230.332825 -0.000043 -28.657681 -13.417036 46.652043 -37.385998 -27.843643 8.155151 -22.714300 -38.468667 -37.876776 0.000006 -212.164902 0.000009 147.987482 64.252990 -46.836888 0.000016 -203.925568 -0.000089 40.723138 -45.274694 -69.606034 
-78.623596 500.425537 -8.131107 10.147995 -3.448294 -28.052565 -2.419230 77.438469 -4.009169 -7.776635 -4.373648 28.405184 0.000014 42.816048 -0.000001 3.092764 0.224140 -18.840973 0.000003 99.556824 0.000097 -0.710352 15.571225 57.931759 0.000016 26.086742 -0.000011 -8.782546 -2.871897 5.723493 23.131193 72.587967 -2.656773 -16.839814 -6.289202 -10.019906 59.516403 0.000092 0.000000 104.597442 31.636709 3.917405 -0.000060 -103.850464 -0.000003 12.949235 -10.447424 82.016775 -0.000057 -166.369202 0.000011 20.702980 -20.222063 60.421103 -37.868393 80.253677 9.180031 -102.234668 -22.641254 -5.541522 -43.114685 -0.000009 0.000016 -60.996731 33.754047 -58.547746 -0.000052 -124.228775 -0.000010 49.139635 -130.307619 59.611951 0.000088 -153.003647 0.000037 -3.717284 -13.840641 88.557583 29.527147 -32.825951 6.217245 -6.582579 -8.447511 -0.666248 0.000017 -204.070816 -0.000029 -9.634599 27.795144 -49.382012 0.000040 -230.332825 -0.000054 -28.366769 -12.775175 47.130897 -37.386021 -27.843590 8.155237 -22.504684 -38.200821 -37.531760 -0.000011 -212.164902 -0.000004 144.063334 65.123764 -42.994470 0.000011 -203.925568 -0.000044 42.217338 -42.178549 -71.387115 
-79.033844 500.758209 -9.296001 10.150780 -3.189268 -27.892693 -2.419207 77.438393 -4.009220 -7.963677 -4.085181 28.215057 0.000000 42.816021 -0.000027 3.071832 0.013700 -18.873698 -0.000009 99.556763 0.000051 -0.378925 16.080610 57.762220 0.000006 26.086754 0.000008 -8.970105 -2.581901 5.617226 23.131172 72.587875 -2.656759 -15.861067 -6.804146 -9.465919 59.516418 -0.000014 -0.000015 104.287570 30.746882 4.723146 -0.000031 -103.850403 -0.000006 12.670301 -10.368215 80.314972 -0.000006 -166.369110 -0.000080 22.162750 -19.103899 59.333806 -37.868446 80.253578 9.180042 -101.833223 -22.332483 -7.109472 -43.114708 -0.000109 0.000017 -61.503101 32.505106 -58.044245 -0.000010 -124.228836 -0.000057 51.130407 -129.057927 62.348624 0.000034 -153.003601 -0.000011 -3.898200 -13.922205 86.962713 29.527161 -32.825935 6.217197 -6.376021 -9.102378 -0.380065 -0.000003 -204.070816 -0.000046 -9.651856 28.645142 -49.116840 0.000040 -230.332825 -0.000034 -26.722367 -11.026093 47.372041 -37.385979 -27.843538 8.155210 -22.318024 -38.796605 -37.599338 0.000012 -212.164917 0.000001 140.230532 66.096034 -39.971660 0.000008 -203.925568 -0.000063 43.988112 -38.524907 -72.903636 
-79.206680 501.314667 -10.630028 9.908357 -3.286683 -28.287580 -2.419184 77.438408 -4.009114 -8.533947 -2.775393 28.617863 0.000014 42.816017 -0.000011 2.957022 -1.075241 -19.255726 -0.000039 99.556854 0.000057 0.633572 16.271092 58.133345 -0.000009 26.086756 0.000025 -8.405924 -1.766346 5.564196 23.131174 72.587952 -2.656762 -15.040541 -7.423077 -8.251363 59.516487 -0.000009 -0.000041 104.901672 29.495516 4.606434 -0.000049 -103.850433 -0.000026 11.961163 -10.052244 78.654095 -0.000023 -166.369217 0.000023 23.882737 -19.825935 54.468330 -37.868446 80.253677 9.180004 -99.692546 -21.740992 -8.967800 -43.114822 -0.000082 0.000014 -62.543755 29.760958 -57.355352 -0.000062 -124.228775 -0.000083 55.705510 -127.966490 67.731106 -0.000008 -153.003616 0.000142 -3.419323 -14.544760 86.152625 29.527199 -32.826019 6.217269 -6.177242 -9.599058 0.127182 0.000014 -204.070862 -0.000046 -9.818429 29.761252 -46.963175 0.000034 -230.332825 -0.000053 -25.449992 -8.626663 46.390211 -37.385994 -27.843586 8.155220 -22.410286 -40.505569 -38.951551 -0.000005 -212.164917 0.000027 144.451548 67.323904 -46.384382 -0.000042 -203.925613 -0.000051 44.570457 -37.681074 -72.379460 
